<mxfile host="app.diagrams.net" modified="2023-10-31T15:21:53.178Z" agent="Mozilla/5.0 (X11; Linux x86_64) AppleWebKit/537.36 (KHTML, like Gecko) Chrome/118.0.0.0 Safari/537.36" etag="SG25kDTJMj_pbS3kvnC3" version="21.6.9" type="device">
  <diagram name="Pagina-1" id="FlLQfrNhHwPAbJIoAyrE">
    <mxGraphModel dx="4412" dy="1885" grid="1" gridSize="10" guides="1" tooltips="1" connect="1" arrows="1" fold="1" page="1" pageScale="1" pageWidth="827" pageHeight="1169" math="0" shadow="0">
      <root>
        <mxCell id="0" />
        <mxCell id="1" parent="0" />
        <mxCell id="HVqlwzRy5CUrB4Z_jReI-25" value="&lt;code&gt;&lt;br&gt;&lt;/code&gt;" style="rounded=0;whiteSpace=wrap;html=1;strokeColor=#000000;strokeWidth=4;" parent="1" vertex="1">
          <mxGeometry x="839" y="1140" width="551" height="250" as="geometry" />
        </mxCell>
        <mxCell id="HVqlwzRy5CUrB4Z_jReI-28" value="&lt;code&gt;&lt;br&gt;&lt;/code&gt;" style="rounded=0;whiteSpace=wrap;html=1;strokeColor=#000000;strokeWidth=4;" parent="1" vertex="1">
          <mxGeometry x="190" y="1160" width="200" height="210" as="geometry" />
        </mxCell>
        <mxCell id="HVqlwzRy5CUrB4Z_jReI-69" value="" style="rounded=0;whiteSpace=wrap;html=1;strokeWidth=4;" parent="1" vertex="1">
          <mxGeometry x="190" y="110" width="1200" height="990" as="geometry" />
        </mxCell>
        <mxCell id="JTHPTSterfoUAE3WW7ak-2" style="edgeStyle=orthogonalEdgeStyle;rounded=0;orthogonalLoop=1;jettySize=auto;html=1;exitX=0.5;exitY=0;exitDx=0;exitDy=0;entryX=0.5;entryY=1;entryDx=0;entryDy=0;" edge="1" parent="1" source="HVqlwzRy5CUrB4Z_jReI-1" target="JTHPTSterfoUAE3WW7ak-1">
          <mxGeometry relative="1" as="geometry" />
        </mxCell>
        <mxCell id="HVqlwzRy5CUrB4Z_jReI-1" value="&lt;b&gt;MainWindow&lt;/b&gt;" style="rounded=0;whiteSpace=wrap;html=1;strokeWidth=1;" parent="1" vertex="1">
          <mxGeometry x="499" y="254" width="190" height="50" as="geometry" />
        </mxCell>
        <mxCell id="HVqlwzRy5CUrB4Z_jReI-35" style="edgeStyle=orthogonalEdgeStyle;rounded=0;orthogonalLoop=1;jettySize=auto;html=1;entryX=0;entryY=0.5;entryDx=0;entryDy=0;" parent="1" source="HVqlwzRy5CUrB4Z_jReI-2" target="HVqlwzRy5CUrB4Z_jReI-1" edge="1">
          <mxGeometry relative="1" as="geometry" />
        </mxCell>
        <mxCell id="HVqlwzRy5CUrB4Z_jReI-2" value="&lt;code&gt;MainWindowDesign&lt;br&gt;(Generated by &lt;br&gt;pyside2-designer and pyside2-uic)&lt;br&gt;&lt;/code&gt;" style="rounded=0;whiteSpace=wrap;html=1;" parent="1" vertex="1">
          <mxGeometry x="240" y="239" width="190" height="80" as="geometry" />
        </mxCell>
        <mxCell id="HVqlwzRy5CUrB4Z_jReI-10" style="edgeStyle=orthogonalEdgeStyle;rounded=0;orthogonalLoop=1;jettySize=auto;html=1;exitX=0;exitY=0.5;exitDx=0;exitDy=0;entryX=1;entryY=0.5;entryDx=0;entryDy=0;" parent="1" source="HVqlwzRy5CUrB4Z_jReI-4" target="HVqlwzRy5CUrB4Z_jReI-1" edge="1">
          <mxGeometry relative="1" as="geometry" />
        </mxCell>
        <mxCell id="HVqlwzRy5CUrB4Z_jReI-15" style="edgeStyle=orthogonalEdgeStyle;rounded=0;orthogonalLoop=1;jettySize=auto;html=1;exitX=1;exitY=0.5;exitDx=0;exitDy=0;entryX=0.442;entryY=0.031;entryDx=0;entryDy=0;entryPerimeter=0;" parent="1" source="HVqlwzRy5CUrB4Z_jReI-4" target="HVqlwzRy5CUrB4Z_jReI-11" edge="1">
          <mxGeometry relative="1" as="geometry" />
        </mxCell>
        <mxCell id="HVqlwzRy5CUrB4Z_jReI-4" value="&lt;code&gt;ConsoleWidget&lt;br&gt;&lt;/code&gt;" style="rounded=0;whiteSpace=wrap;html=1;" parent="1" vertex="1">
          <mxGeometry x="739" y="304" width="131" height="46" as="geometry" />
        </mxCell>
        <mxCell id="HVqlwzRy5CUrB4Z_jReI-19" value="" style="edgeStyle=orthogonalEdgeStyle;rounded=0;orthogonalLoop=1;jettySize=auto;html=1;" parent="1" source="HVqlwzRy5CUrB4Z_jReI-6" target="HVqlwzRy5CUrB4Z_jReI-11" edge="1">
          <mxGeometry relative="1" as="geometry" />
        </mxCell>
        <mxCell id="HVqlwzRy5CUrB4Z_jReI-6" value="&lt;code&gt;Scripts&lt;br&gt;in scripts/ folder&lt;br&gt;&lt;/code&gt;" style="rounded=0;whiteSpace=wrap;html=1;" parent="1" vertex="1">
          <mxGeometry x="1160" y="426.5" width="190" height="80" as="geometry" />
        </mxCell>
        <mxCell id="HVqlwzRy5CUrB4Z_jReI-9" style="edgeStyle=orthogonalEdgeStyle;rounded=0;orthogonalLoop=1;jettySize=auto;html=1;" parent="1" source="HVqlwzRy5CUrB4Z_jReI-7" edge="1">
          <mxGeometry relative="1" as="geometry">
            <mxPoint x="682" y="304" as="targetPoint" />
          </mxGeometry>
        </mxCell>
        <mxCell id="HVqlwzRy5CUrB4Z_jReI-7" value="&lt;code&gt;PluginLoader&lt;br&gt;&lt;/code&gt;" style="rounded=0;whiteSpace=wrap;html=1;" parent="1" vertex="1">
          <mxGeometry x="737" y="380" width="121" height="41" as="geometry" />
        </mxCell>
        <mxCell id="HVqlwzRy5CUrB4Z_jReI-16" style="edgeStyle=orthogonalEdgeStyle;rounded=0;orthogonalLoop=1;jettySize=auto;html=1;exitX=0;exitY=0.5;exitDx=0;exitDy=0;entryX=1;entryY=0.5;entryDx=0;entryDy=0;" parent="1" source="HVqlwzRy5CUrB4Z_jReI-8" target="HVqlwzRy5CUrB4Z_jReI-7" edge="1">
          <mxGeometry relative="1" as="geometry" />
        </mxCell>
        <mxCell id="HVqlwzRy5CUrB4Z_jReI-8" value="&lt;code&gt;Ao_System&lt;br&gt;&lt;/code&gt;" style="rounded=0;whiteSpace=wrap;html=1;" parent="1" vertex="1">
          <mxGeometry x="929" y="534" width="190" height="80" as="geometry" />
        </mxCell>
        <mxCell id="HVqlwzRy5CUrB4Z_jReI-12" style="edgeStyle=orthogonalEdgeStyle;rounded=0;orthogonalLoop=1;jettySize=auto;html=1;entryX=1;entryY=0.5;entryDx=0;entryDy=0;" parent="1" source="HVqlwzRy5CUrB4Z_jReI-11" target="HVqlwzRy5CUrB4Z_jReI-7" edge="1">
          <mxGeometry relative="1" as="geometry" />
        </mxCell>
        <mxCell id="HVqlwzRy5CUrB4Z_jReI-11" value="&lt;code&gt;ScriptLauncher&lt;br&gt;&lt;/code&gt;" style="rounded=0;whiteSpace=wrap;html=1;" parent="1" vertex="1">
          <mxGeometry x="929" y="426.5" width="190" height="80" as="geometry" />
        </mxCell>
        <mxCell id="HVqlwzRy5CUrB4Z_jReI-18" style="edgeStyle=orthogonalEdgeStyle;rounded=0;orthogonalLoop=1;jettySize=auto;html=1;entryX=1;entryY=0.5;entryDx=0;entryDy=0;" parent="1" source="HVqlwzRy5CUrB4Z_jReI-17" target="HVqlwzRy5CUrB4Z_jReI-7" edge="1">
          <mxGeometry relative="1" as="geometry" />
        </mxCell>
        <mxCell id="HVqlwzRy5CUrB4Z_jReI-17" value="&lt;code&gt;myPlugin&lt;br&gt;(plugin example)&lt;br&gt;&lt;/code&gt;" style="rounded=0;whiteSpace=wrap;html=1;" parent="1" vertex="1">
          <mxGeometry x="929" y="634" width="190" height="80" as="geometry" />
        </mxCell>
        <mxCell id="HVqlwzRy5CUrB4Z_jReI-21" style="edgeStyle=orthogonalEdgeStyle;rounded=0;orthogonalLoop=1;jettySize=auto;html=1;entryX=0.5;entryY=1;entryDx=0;entryDy=0;" parent="1" source="HVqlwzRy5CUrB4Z_jReI-20" target="HVqlwzRy5CUrB4Z_jReI-1" edge="1">
          <mxGeometry relative="1" as="geometry" />
        </mxCell>
        <mxCell id="HVqlwzRy5CUrB4Z_jReI-20" value="&lt;code&gt;SpadFCSManager&lt;br&gt;&lt;/code&gt;" style="rounded=0;whiteSpace=wrap;html=1;fontStyle=1" parent="1" vertex="1">
          <mxGeometry x="533.5" y="680" width="121" height="95" as="geometry" />
        </mxCell>
        <mxCell id="HVqlwzRy5CUrB4Z_jReI-33" style="edgeStyle=orthogonalEdgeStyle;rounded=0;orthogonalLoop=1;jettySize=auto;html=1;entryX=0.5;entryY=1;entryDx=0;entryDy=0;" parent="1" source="HVqlwzRy5CUrB4Z_jReI-22" target="HVqlwzRy5CUrB4Z_jReI-20" edge="1">
          <mxGeometry relative="1" as="geometry" />
        </mxCell>
        <mxCell id="HVqlwzRy5CUrB4Z_jReI-58" style="edgeStyle=orthogonalEdgeStyle;rounded=0;orthogonalLoop=1;jettySize=auto;html=1;entryX=0.5;entryY=0;entryDx=0;entryDy=0;shape=flexArrow;startArrow=block;fillColor=#e3c800;strokeColor=#B09500;" parent="1" source="HVqlwzRy5CUrB4Z_jReI-22" target="HVqlwzRy5CUrB4Z_jReI-72" edge="1">
          <mxGeometry relative="1" as="geometry" />
        </mxCell>
        <mxCell id="HVqlwzRy5CUrB4Z_jReI-59" style="edgeStyle=orthogonalEdgeStyle;rounded=0;orthogonalLoop=1;jettySize=auto;html=1;exitX=0.5;exitY=1;exitDx=0;exitDy=0;entryX=0.5;entryY=0;entryDx=0;entryDy=0;shape=flexArrow;endArrow=block;startArrow=block;fillColor=#e3c800;strokeColor=#B09500;" parent="1" source="HVqlwzRy5CUrB4Z_jReI-22" target="HVqlwzRy5CUrB4Z_jReI-26" edge="1">
          <mxGeometry relative="1" as="geometry" />
        </mxCell>
        <mxCell id="HVqlwzRy5CUrB4Z_jReI-62" style="edgeStyle=orthogonalEdgeStyle;rounded=0;orthogonalLoop=1;jettySize=auto;html=1;exitX=1;exitY=0.5;exitDx=0;exitDy=0;shape=flexArrow;startArrow=block;fillColor=#6a00ff;strokeColor=#3700CC;strokeWidth=3;entryX=0.5;entryY=0;entryDx=0;entryDy=0;" parent="1" source="HVqlwzRy5CUrB4Z_jReI-22" target="HVqlwzRy5CUrB4Z_jReI-86" edge="1">
          <mxGeometry relative="1" as="geometry" />
        </mxCell>
        <mxCell id="HVqlwzRy5CUrB4Z_jReI-22" value="&lt;code&gt;FPGAHandle&lt;br&gt;&lt;/code&gt;" style="rounded=0;whiteSpace=wrap;html=1;fontStyle=1" parent="1" vertex="1">
          <mxGeometry x="537.25" y="950" width="115.5" height="95" as="geometry" />
        </mxCell>
        <mxCell id="HVqlwzRy5CUrB4Z_jReI-83" style="edgeStyle=orthogonalEdgeStyle;rounded=0;orthogonalLoop=1;jettySize=auto;html=1;exitX=0;exitY=0.5;exitDx=0;exitDy=0;" parent="1" source="HVqlwzRy5CUrB4Z_jReI-23" edge="1">
          <mxGeometry relative="1" as="geometry">
            <mxPoint x="670" y="304" as="targetPoint" />
          </mxGeometry>
        </mxCell>
        <mxCell id="HVqlwzRy5CUrB4Z_jReI-23" value="&lt;code&gt;H5Manager&lt;br&gt;&lt;/code&gt;" style="rounded=0;whiteSpace=wrap;html=1;" parent="1" vertex="1">
          <mxGeometry x="739" y="460" width="121" height="40" as="geometry" />
        </mxCell>
        <mxCell id="HVqlwzRy5CUrB4Z_jReI-64" style="edgeStyle=orthogonalEdgeStyle;rounded=0;orthogonalLoop=1;jettySize=auto;html=1;exitX=1;exitY=0.5;exitDx=0;exitDy=0;entryX=-0.005;entryY=0.342;entryDx=0;entryDy=0;shape=arrow;fillColor=#a20025;strokeColor=#6F0000;entryPerimeter=0;" parent="1" source="HVqlwzRy5CUrB4Z_jReI-26" target="HVqlwzRy5CUrB4Z_jReI-86" edge="1">
          <mxGeometry relative="1" as="geometry" />
        </mxCell>
        <mxCell id="HVqlwzRy5CUrB4Z_jReI-26" value="&lt;code&gt;&lt;code&gt;DataPreProcess&lt;/code&gt;&lt;br&gt;&lt;/code&gt;" style="rounded=0;whiteSpace=wrap;html=1;strokeColor=#000000;strokeWidth=4;" parent="1" vertex="1">
          <mxGeometry x="484" y="1162.5" width="220" height="90" as="geometry" />
        </mxCell>
        <mxCell id="HVqlwzRy5CUrB4Z_jReI-63" style="edgeStyle=orthogonalEdgeStyle;rounded=0;orthogonalLoop=1;jettySize=auto;html=1;shape=arrow;fillColor=#a20025;strokeColor=#6F0000;exitX=1.02;exitY=0.199;exitDx=0;exitDy=0;exitPerimeter=0;" parent="1" source="HVqlwzRy5CUrB4Z_jReI-28" edge="1">
          <mxGeometry relative="1" as="geometry">
            <mxPoint x="480" y="1202" as="targetPoint" />
            <mxPoint x="400" y="1190" as="sourcePoint" />
          </mxGeometry>
        </mxCell>
        <mxCell id="HVqlwzRy5CUrB4Z_jReI-76" style="edgeStyle=orthogonalEdgeStyle;rounded=0;orthogonalLoop=1;jettySize=auto;html=1;entryX=0.5;entryY=1;entryDx=0;entryDy=0;" parent="1" source="HVqlwzRy5CUrB4Z_jReI-29" target="HVqlwzRy5CUrB4Z_jReI-71" edge="1">
          <mxGeometry relative="1" as="geometry" />
        </mxCell>
        <mxCell id="HVqlwzRy5CUrB4Z_jReI-29" value="&lt;code&gt;&lt;code&gt;nifpga-fast-fifo-recv&lt;br&gt;&lt;/code&gt;(Rust)&lt;br&gt;&lt;/code&gt;" style="rounded=0;whiteSpace=wrap;html=1;strokeColor=#000000;strokeWidth=4;" parent="1" vertex="1">
          <mxGeometry x="190" y="1410" width="200" height="60" as="geometry" />
        </mxCell>
        <mxCell id="HVqlwzRy5CUrB4Z_jReI-91" style="edgeStyle=orthogonalEdgeStyle;rounded=0;orthogonalLoop=1;jettySize=auto;html=1;exitX=1;exitY=0.5;exitDx=0;exitDy=0;" parent="1" source="HVqlwzRy5CUrB4Z_jReI-32" edge="1">
          <mxGeometry relative="1" as="geometry">
            <mxPoint x="514" y="304" as="targetPoint" />
          </mxGeometry>
        </mxCell>
        <mxCell id="HVqlwzRy5CUrB4Z_jReI-32" value="&lt;code&gt;TTM&lt;br&gt;&lt;/code&gt;" style="rounded=0;whiteSpace=wrap;html=1;" parent="1" vertex="1">
          <mxGeometry x="269" y="380.62" width="121" height="47.5" as="geometry" />
        </mxCell>
        <mxCell id="HVqlwzRy5CUrB4Z_jReI-52" value="&lt;font style=&quot;font-size: 17px;&quot;&gt;Bold border = Separate Process&lt;/font&gt;" style="text;html=1;strokeColor=none;fillColor=none;align=center;verticalAlign=middle;whiteSpace=wrap;rounded=0;" parent="1" vertex="1">
          <mxGeometry x="1135.5" y="1420" width="254.5" height="70" as="geometry" />
        </mxCell>
        <mxCell id="HVqlwzRy5CUrB4Z_jReI-60" style="edgeStyle=orthogonalEdgeStyle;rounded=0;orthogonalLoop=1;jettySize=auto;html=1;exitX=0;exitY=0.5;exitDx=0;exitDy=0;entryX=0.75;entryY=0;entryDx=0;entryDy=0;" parent="1" source="HVqlwzRy5CUrB4Z_jReI-54" target="HVqlwzRy5CUrB4Z_jReI-22" edge="1">
          <mxGeometry relative="1" as="geometry" />
        </mxCell>
        <mxCell id="HVqlwzRy5CUrB4Z_jReI-54" value="&lt;code&gt;MemorySharedArray&lt;br&gt;&lt;/code&gt;" style="rounded=0;whiteSpace=wrap;html=1;" parent="1" vertex="1">
          <mxGeometry x="705" y="812.5" width="185" height="87.5" as="geometry" />
        </mxCell>
        <mxCell id="HVqlwzRy5CUrB4Z_jReI-65" value="Shared dictionary" style="text;html=1;strokeColor=none;fillColor=none;align=center;verticalAlign=middle;whiteSpace=wrap;rounded=0;" parent="1" vertex="1">
          <mxGeometry x="380" y="1010" width="60" height="30" as="geometry" />
        </mxCell>
        <mxCell id="HVqlwzRy5CUrB4Z_jReI-66" value="Queue" style="text;html=1;strokeColor=none;fillColor=none;align=center;verticalAlign=middle;whiteSpace=wrap;rounded=0;" parent="1" vertex="1">
          <mxGeometry x="410" y="1162.5" width="60" height="30" as="geometry" />
        </mxCell>
        <mxCell id="HVqlwzRy5CUrB4Z_jReI-67" value="Queue" style="text;html=1;strokeColor=none;fillColor=none;align=center;verticalAlign=middle;whiteSpace=wrap;rounded=0;" parent="1" vertex="1">
          <mxGeometry x="729" y="1169" width="60" height="30" as="geometry" />
        </mxCell>
        <mxCell id="HVqlwzRy5CUrB4Z_jReI-75" style="edgeStyle=orthogonalEdgeStyle;rounded=0;orthogonalLoop=1;jettySize=auto;html=1;entryX=0.5;entryY=1;entryDx=0;entryDy=0;" parent="1" source="HVqlwzRy5CUrB4Z_jReI-71" target="HVqlwzRy5CUrB4Z_jReI-72" edge="1">
          <mxGeometry relative="1" as="geometry" />
        </mxCell>
        <mxCell id="HVqlwzRy5CUrB4Z_jReI-71" value="&lt;code&gt;&lt;code&gt;RustFastFifoReader&lt;/code&gt;&lt;br&gt;&lt;/code&gt;" style="rounded=0;whiteSpace=wrap;html=1;strokeColor=#000000;strokeWidth=1;" parent="1" vertex="1">
          <mxGeometry x="215" y="1280" width="150" height="70" as="geometry" />
        </mxCell>
        <mxCell id="HVqlwzRy5CUrB4Z_jReI-72" value="FpgaHandleProcess" style="rounded=0;whiteSpace=wrap;html=1;strokeWidth=1;fontStyle=1" parent="1" vertex="1">
          <mxGeometry x="230" y="1192.5" width="120" height="60" as="geometry" />
        </mxCell>
        <mxCell id="HVqlwzRy5CUrB4Z_jReI-77" style="edgeStyle=orthogonalEdgeStyle;rounded=0;orthogonalLoop=1;jettySize=auto;html=1;exitX=1;exitY=0.5;exitDx=0;exitDy=0;shape=flexArrow;startArrow=block;fillColor=#e3c800;strokeColor=#B09500;entryX=0.25;entryY=0;entryDx=0;entryDy=0;" parent="1" target="HVqlwzRy5CUrB4Z_jReI-86" edge="1">
          <mxGeometry relative="1" as="geometry">
            <mxPoint x="652.75" y="1027.5" as="sourcePoint" />
            <mxPoint x="920" y="1130" as="targetPoint" />
          </mxGeometry>
        </mxCell>
        <mxCell id="HVqlwzRy5CUrB4Z_jReI-78" value="Shared Memory" style="text;html=1;strokeColor=none;fillColor=none;align=center;verticalAlign=middle;whiteSpace=wrap;rounded=0;fontStyle=1" parent="1" vertex="1">
          <mxGeometry x="800" y="950" width="60" height="30" as="geometry" />
        </mxCell>
        <mxCell id="HVqlwzRy5CUrB4Z_jReI-81" value="Shared dictionary" style="text;html=1;strokeColor=none;fillColor=none;align=center;verticalAlign=middle;whiteSpace=wrap;rounded=0;" parent="1" vertex="1">
          <mxGeometry x="610" y="1060" width="60" height="30" as="geometry" />
        </mxCell>
        <mxCell id="HVqlwzRy5CUrB4Z_jReI-82" value="Shared dictionary" style="text;html=1;strokeColor=none;fillColor=none;align=center;verticalAlign=middle;whiteSpace=wrap;rounded=0;" parent="1" vertex="1">
          <mxGeometry x="769.5" y="1040" width="60" height="30" as="geometry" />
        </mxCell>
        <mxCell id="HVqlwzRy5CUrB4Z_jReI-88" style="edgeStyle=orthogonalEdgeStyle;rounded=0;orthogonalLoop=1;jettySize=auto;html=1;exitX=0;exitY=0.5;exitDx=0;exitDy=0;entryX=1;entryY=0.5;entryDx=0;entryDy=0;" parent="1" source="HVqlwzRy5CUrB4Z_jReI-84" target="HVqlwzRy5CUrB4Z_jReI-86" edge="1">
          <mxGeometry relative="1" as="geometry" />
        </mxCell>
        <mxCell id="HVqlwzRy5CUrB4Z_jReI-84" value="&lt;code&gt;H5Manager&lt;br&gt;&lt;/code&gt;" style="rounded=0;whiteSpace=wrap;html=1;" parent="1" vertex="1">
          <mxGeometry x="1190" y="1187.5" width="121" height="70" as="geometry" />
        </mxCell>
        <mxCell id="HVqlwzRy5CUrB4Z_jReI-86" value="&lt;code&gt;AcquisitionLoopProcess&lt;br&gt;&lt;/code&gt;" style="rounded=0;whiteSpace=wrap;html=1;strokeColor=#000000;strokeWidth=1;fontStyle=1" parent="1" vertex="1">
          <mxGeometry x="879.5" y="1177.5" width="230" height="90" as="geometry" />
        </mxCell>
        <mxCell id="HVqlwzRy5CUrB4Z_jReI-89" style="edgeStyle=orthogonalEdgeStyle;rounded=0;orthogonalLoop=1;jettySize=auto;html=1;exitX=0;exitY=0.5;exitDx=0;exitDy=0;entryX=0.75;entryY=1;entryDx=0;entryDy=0;" parent="1" source="HVqlwzRy5CUrB4Z_jReI-87" target="HVqlwzRy5CUrB4Z_jReI-86" edge="1">
          <mxGeometry relative="1" as="geometry" />
        </mxCell>
        <mxCell id="HVqlwzRy5CUrB4Z_jReI-87" value="&lt;code&gt;FastConverter&lt;br&gt;(Cython)&lt;br&gt;&lt;/code&gt;" style="rounded=0;whiteSpace=wrap;html=1;" parent="1" vertex="1">
          <mxGeometry x="1190" y="1300" width="121" height="70" as="geometry" />
        </mxCell>
        <mxCell id="HVqlwzRy5CUrB4Z_jReI-94" value="&lt;code&gt;TTM data Recv&lt;br&gt;&lt;/code&gt;" style="rounded=0;whiteSpace=wrap;html=1;strokeColor=#000000;strokeWidth=4;" parent="1" vertex="1">
          <mxGeometry x="-140" y="360" width="200" height="88.75" as="geometry" />
        </mxCell>
        <mxCell id="HVqlwzRy5CUrB4Z_jReI-95" value="" style="shape=flexArrow;endArrow=classic;html=1;rounded=0;entryX=1;entryY=0.5;entryDx=0;entryDy=0;exitX=0;exitY=0.5;exitDx=0;exitDy=0;dashed=1;fillColor=#647687;strokeColor=#314354;" parent="1" source="HVqlwzRy5CUrB4Z_jReI-32" target="HVqlwzRy5CUrB4Z_jReI-94" edge="1">
          <mxGeometry width="50" height="50" relative="1" as="geometry">
            <mxPoint x="480" y="368.12" as="sourcePoint" />
            <mxPoint x="530" y="318.12" as="targetPoint" />
          </mxGeometry>
        </mxCell>
        <mxCell id="HVqlwzRy5CUrB4Z_jReI-96" value="TCP/IP" style="text;html=1;strokeColor=none;fillColor=none;align=center;verticalAlign=middle;whiteSpace=wrap;rounded=0;" parent="1" vertex="1">
          <mxGeometry x="109" y="369.62" width="60" height="30" as="geometry" />
        </mxCell>
        <mxCell id="HVqlwzRy5CUrB4Z_jReI-101" style="edgeStyle=orthogonalEdgeStyle;rounded=0;orthogonalLoop=1;jettySize=auto;html=1;exitX=1;exitY=0.5;exitDx=0;exitDy=0;entryX=0.239;entryY=1.017;entryDx=0;entryDy=0;entryPerimeter=0;" parent="1" source="HVqlwzRy5CUrB4Z_jReI-100" target="HVqlwzRy5CUrB4Z_jReI-1" edge="1">
          <mxGeometry relative="1" as="geometry">
            <mxPoint x="545" y="310" as="targetPoint" />
          </mxGeometry>
        </mxCell>
        <mxCell id="HVqlwzRy5CUrB4Z_jReI-100" value="&lt;code&gt;TableManager&lt;br&gt;&lt;/code&gt;" style="rounded=0;whiteSpace=wrap;html=1;" parent="1" vertex="1">
          <mxGeometry x="385" y="530" width="121" height="50" as="geometry" />
        </mxCell>
        <mxCell id="HVqlwzRy5CUrB4Z_jReI-104" style="edgeStyle=orthogonalEdgeStyle;rounded=0;orthogonalLoop=1;jettySize=auto;html=1;exitX=1;exitY=0.5;exitDx=0;exitDy=0;entryX=0.172;entryY=1.017;entryDx=0;entryDy=0;entryPerimeter=0;" parent="1" source="HVqlwzRy5CUrB4Z_jReI-102" target="HVqlwzRy5CUrB4Z_jReI-1" edge="1">
          <mxGeometry relative="1" as="geometry">
            <mxPoint x="531" y="308" as="targetPoint" />
          </mxGeometry>
        </mxCell>
        <mxCell id="HVqlwzRy5CUrB4Z_jReI-102" value="&lt;code&gt;DFDWidget&lt;br&gt;&lt;/code&gt;" style="rounded=0;whiteSpace=wrap;html=1;" parent="1" vertex="1">
          <mxGeometry x="385" y="481.5" width="121" height="38.5" as="geometry" />
        </mxCell>
        <mxCell id="HVqlwzRy5CUrB4Z_jReI-106" style="edgeStyle=orthogonalEdgeStyle;rounded=0;orthogonalLoop=1;jettySize=auto;html=1;exitX=0;exitY=0.5;exitDx=0;exitDy=0;entryX=0.837;entryY=0.993;entryDx=0;entryDy=0;entryPerimeter=0;" parent="1" source="HVqlwzRy5CUrB4Z_jReI-105" target="HVqlwzRy5CUrB4Z_jReI-1" edge="1">
          <mxGeometry relative="1" as="geometry" />
        </mxCell>
        <mxCell id="HVqlwzRy5CUrB4Z_jReI-105" value="&lt;code&gt;Autocorrelator&lt;br&gt;(Cython)&lt;br&gt;&lt;/code&gt;" style="rounded=0;whiteSpace=wrap;html=1;" parent="1" vertex="1">
          <mxGeometry x="739" y="534" width="121" height="50" as="geometry" />
        </mxCell>
        <mxCell id="HVqlwzRy5CUrB4Z_jReI-110" style="edgeStyle=orthogonalEdgeStyle;rounded=0;orthogonalLoop=1;jettySize=auto;html=1;entryX=0.75;entryY=1;entryDx=0;entryDy=0;" parent="1" source="HVqlwzRy5CUrB4Z_jReI-107" target="HVqlwzRy5CUrB4Z_jReI-1" edge="1">
          <mxGeometry relative="1" as="geometry" />
        </mxCell>
        <mxCell id="HVqlwzRy5CUrB4Z_jReI-107" value="&lt;code&gt;TimeBinner&lt;br&gt;(Cython)&lt;br&gt;&lt;/code&gt;" style="rounded=0;whiteSpace=wrap;html=1;" parent="1" vertex="1">
          <mxGeometry x="737" y="600" width="119" height="60" as="geometry" />
        </mxCell>
        <mxCell id="JTHPTSterfoUAE3WW7ak-1" value="main.py" style="rounded=0;whiteSpace=wrap;html=1;strokeWidth=1;" vertex="1" parent="1">
          <mxGeometry x="500" y="130" width="190" height="50" as="geometry" />
        </mxCell>
        <mxCell id="JTHPTSterfoUAE3WW7ak-4" style="edgeStyle=orthogonalEdgeStyle;rounded=0;orthogonalLoop=1;jettySize=auto;html=1;exitX=1;exitY=0.5;exitDx=0;exitDy=0;entryX=0.321;entryY=1.032;entryDx=0;entryDy=0;entryPerimeter=0;" edge="1" parent="1" source="JTHPTSterfoUAE3WW7ak-3" target="HVqlwzRy5CUrB4Z_jReI-1">
          <mxGeometry relative="1" as="geometry" />
        </mxCell>
        <mxCell id="JTHPTSterfoUAE3WW7ak-3" value="&lt;code&gt;DictToTree&lt;br&gt;&lt;/code&gt;" style="rounded=0;whiteSpace=wrap;html=1;" vertex="1" parent="1">
          <mxGeometry x="385" y="590" width="121" height="40" as="geometry" />
        </mxCell>
        <mxCell id="JTHPTSterfoUAE3WW7ak-6" value="" style="edgeStyle=orthogonalEdgeStyle;rounded=0;orthogonalLoop=1;jettySize=auto;html=1;" edge="1" parent="1" source="JTHPTSterfoUAE3WW7ak-5" target="HVqlwzRy5CUrB4Z_jReI-102">
          <mxGeometry relative="1" as="geometry" />
        </mxCell>
        <mxCell id="JTHPTSterfoUAE3WW7ak-5" value="&lt;code&gt;DFDWidgetDesign&lt;br&gt;&lt;/code&gt;" style="rounded=0;whiteSpace=wrap;html=1;" vertex="1" parent="1">
          <mxGeometry x="215" y="481.5" width="121" height="38.5" as="geometry" />
        </mxCell>
        <mxCell id="JTHPTSterfoUAE3WW7ak-8" style="edgeStyle=orthogonalEdgeStyle;rounded=0;orthogonalLoop=1;jettySize=auto;html=1;exitX=1;exitY=0.5;exitDx=0;exitDy=0;" edge="1" parent="1" source="JTHPTSterfoUAE3WW7ak-7">
          <mxGeometry relative="1" as="geometry">
            <mxPoint x="574.666666666667" y="305.5" as="targetPoint" />
          </mxGeometry>
        </mxCell>
        <mxCell id="JTHPTSterfoUAE3WW7ak-7" value="&lt;code&gt;SciSpinBox&lt;br&gt;&lt;/code&gt;" style="rounded=0;whiteSpace=wrap;html=1;" vertex="1" parent="1">
          <mxGeometry x="385" y="640" width="121" height="40" as="geometry" />
        </mxCell>
      </root>
    </mxGraphModel>
  </diagram>
</mxfile>
